<svg width="9" height="15" viewBox="0 0 9 15" fill="none" xmlns="http://www.w3.org/2000/svg">
<path d="M7.75365 0.408299L1.07841 7.08354C1.04738 7.11453 1.02276 7.15134 1.00596 7.19186C0.989167 7.23238 0.980522 7.27581 0.980522 7.31967C0.980522 7.36353 0.989167 7.40697 1.00596 7.44748C1.02276 7.488 1.04738 7.52481 1.07841 7.55581L7.75365 14.231C7.78466 14.2621 7.82147 14.2867 7.86199 14.3034C7.9025 14.3202 7.94593 14.3289 7.98978 14.3289C8.03364 14.3289 8.07706 14.3202 8.11758 14.3034C8.1581 14.2867 8.19491 14.2621 8.22592 14.231C8.28855 14.1684 8.32373 14.0835 8.32373 13.9949C8.32373 13.9511 8.31509 13.9076 8.29831 13.8671C8.28153 13.8266 8.25693 13.7898 8.22592 13.7588L1.78682 7.31967L8.22592 0.880572C8.25693 0.849563 8.28153 0.812749 8.29831 0.772232C8.31509 0.731716 8.32373 0.688291 8.32373 0.644436C8.32373 0.600581 8.31509 0.557157 8.29831 0.51664C8.28153 0.476124 8.25693 0.439309 8.22592 0.408299C8.19491 0.37729 8.15809 0.352692 8.11758 0.335909C8.07706 0.319127 8.03364 0.310489 7.98978 0.310489C7.94593 0.310489 7.9025 0.319127 7.86199 0.335909C7.82147 0.352692 7.78466 0.37729 7.75365 0.408299Z" fill="black"/>
</svg>
