<svg width="8" height="15" viewBox="0 0 8 15" fill="none" xmlns="http://www.w3.org/2000/svg">
<path d="M0.673601 14.5336L7.34885 7.85837C7.37988 7.82738 7.4045 7.79057 7.4213 7.75005C7.43809 7.70953 7.44674 7.6661 7.44674 7.62224C7.44674 7.57837 7.43809 7.53494 7.4213 7.49442C7.4045 7.45391 7.37988 7.4171 7.34885 7.3861L0.673601 0.710848C0.642591 0.679838 0.605777 0.65524 0.565261 0.638457C0.524744 0.621675 0.481319 0.613037 0.437464 0.613037C0.393609 0.613037 0.350184 0.621675 0.309668 0.638457C0.269151 0.65524 0.232337 0.679838 0.201327 0.710848C0.138699 0.773475 0.103516 0.858417 0.103516 0.946985C0.103516 0.99084 0.112154 1.03427 0.128936 1.07478C0.145719 1.1153 0.170317 1.15211 0.201327 1.18312L6.64044 7.62224L0.201326 14.0613C0.170316 14.0924 0.145718 14.1292 0.128936 14.1697C0.112153 14.2102 0.103515 14.2536 0.103515 14.2975C0.103515 14.3413 0.112153 14.3848 0.128936 14.4253C0.145718 14.4658 0.170316 14.5026 0.201326 14.5336C0.232336 14.5646 0.26915 14.5892 0.309667 14.606C0.350183 14.6228 0.393609 14.6314 0.437463 14.6314C0.481318 14.6314 0.524743 14.6228 0.56526 14.606C0.605776 14.5892 0.642591 14.5646 0.673601 14.5336Z" fill="black"/>
</svg>
