<svg width="24" height="24" viewBox="0 0 24 24" fill="none" xmlns="http://www.w3.org/2000/svg">
<path d="M4 20.25V18C4 17.8011 4.07902 17.6103 4.21967 17.4697C4.36032 17.329 4.55109 17.25 4.75 17.25C4.94891 17.25 5.13968 17.329 5.28033 17.4697C5.42098 17.6103 5.5 17.8011 5.5 18V20.25C5.5 20.388 5.612 20.5 5.75 20.5H18.25C18.3163 20.5 18.3799 20.4737 18.4268 20.4268C18.4737 20.3799 18.5 20.3163 18.5 20.25V18C18.5 17.8011 18.579 17.6103 18.7197 17.4697C18.8603 17.329 19.0511 17.25 19.25 17.25C19.4489 17.25 19.6397 17.329 19.7803 17.4697C19.921 17.6103 20 17.8011 20 18V20.25C20 20.7141 19.8156 21.1592 19.4874 21.4874C19.1592 21.8156 18.7141 22 18.25 22H5.75C5.28587 22 4.84075 21.8156 4.51256 21.4874C4.18437 21.1592 4 20.7141 4 20.25Z" fill="black"/>
<path d="M5.21975 9.53C5.15009 9.46043 5.09482 9.37782 5.05712 9.28688C5.01941 9.19593 5 9.09845 5 9C5 8.90155 5.01941 8.80406 5.05712 8.71312C5.09482 8.62218 5.15009 8.53956 5.21975 8.47L11.4698 2.22C11.5393 2.15033 11.6219 2.09507 11.7129 2.05736C11.8038 2.01965 11.9013 2.00024 11.9998 2.00024C12.0982 2.00024 12.1957 2.01965 12.2866 2.05736C12.3776 2.09507 12.4602 2.15033 12.5298 2.22L18.7798 8.47C18.8494 8.5396 18.9046 8.62223 18.9422 8.71316C18.9799 8.8041 18.9993 8.90157 18.9993 9C18.9993 9.09843 18.9799 9.19589 18.9422 9.28683C18.9046 9.37777 18.8494 9.4604 18.7798 9.53C18.7102 9.5996 18.6275 9.65481 18.5366 9.69248C18.4457 9.73014 18.3482 9.74953 18.2498 9.74953C18.1513 9.74953 18.0539 9.73014 17.9629 9.69248C17.872 9.65481 17.7894 9.5996 17.7198 9.53L12.7498 4.561V16.75C12.7498 16.9489 12.6707 17.1397 12.5301 17.2803C12.3894 17.421 12.1987 17.5 11.9998 17.5C11.8008 17.5 11.6101 17.421 11.4694 17.2803C11.3288 17.1397 11.2498 16.9489 11.2498 16.75V4.561L6.27975 9.53C6.21019 9.59966 6.12757 9.65493 6.03663 9.69264C5.94569 9.73034 5.8482 9.74975 5.74975 9.74975C5.6513 9.74975 5.55382 9.73034 5.46288 9.69264C5.37194 9.65493 5.28932 9.59966 5.21975 9.53Z" fill="black"/>
</svg>
