<svg width="9" height="15" viewBox="0 0 9 15" fill="none" xmlns="http://www.w3.org/2000/svg">
<path d="M7.75413 0.408299L1.0789 7.08354C1.04787 7.11453 1.02325 7.15134 1.00645 7.19186C0.989655 7.23238 0.981011 7.27581 0.981011 7.31967C0.981011 7.36353 0.989655 7.40697 1.00645 7.44748C1.02325 7.488 1.04787 7.52481 1.0789 7.55581L7.75413 14.231C7.78514 14.2621 7.82196 14.2867 7.86247 14.3034C7.90299 14.3202 7.94642 14.3289 7.99027 14.3289C8.03413 14.3289 8.07755 14.3202 8.11807 14.3034C8.15858 14.2867 8.1954 14.2621 8.22641 14.231C8.28903 14.1684 8.32422 14.0835 8.32422 13.9949C8.32422 13.9511 8.31558 13.9076 8.2988 13.8671C8.28202 13.8266 8.25742 13.7898 8.22641 13.7588L1.78731 7.31967L8.22641 0.880572C8.25742 0.849563 8.28202 0.812749 8.2988 0.772232C8.31558 0.731716 8.32422 0.688291 8.32422 0.644436C8.32422 0.600581 8.31558 0.557157 8.2988 0.51664C8.28202 0.476124 8.25742 0.439309 8.22641 0.408299C8.1954 0.37729 8.15858 0.352692 8.11807 0.335909C8.07755 0.319127 8.03413 0.310489 7.99027 0.310489C7.94642 0.310489 7.90299 0.319127 7.86247 0.335909C7.82196 0.352692 7.78514 0.37729 7.75413 0.408299Z" fill="black"/>
</svg>
